HIERARCHY
ROOT Hips
{
     OFFSET 1.88212 96.90440 -13.34250
     CHANNELS 6 Xposition Yposition Zposition Zrotation Xrotation Yrotation
     JOINT Spine
     {
          OFFSET 0.00000 11.89050 0.00000
          CHANNELS 3 Zrotation Xrotation Yrotation
          JOINT Spine1
          {
               OFFSET -0.00000 25.65740 0.12766
               CHANNELS 3 Zrotation Xrotation Yrotation
               JOINT HEad
               {
                    OFFSET 0.00000 8.73416 0.01134
                    CHANNELS 3 Zrotation Xrotation Yrotation
                    End Site
                    {
                         OFFSET -0.29000 12.77420 2.51395
                    }
               }
               JOINT LeftShoulder1
               {
                    OFFSET 8.99000 -0.36225 -0.22000
                    CHANNELS 3 Zrotation Xrotation Yrotation
                    JOINT LeftArm
                    {
                         OFFSET 10.28270 -0.00338 0.32212
                         CHANNELS 3 Zrotation Xrotation Yrotation
                         JOINT LeftForeArm
                         {
                              OFFSET 32.76690 0.09914 -1.42434
                              CHANNELS 3 Zrotation Xrotation Yrotation
                              JOINT LeftHand
                              {
                                   OFFSET 27.56430 0.08536 1.02216
                                   CHANNELS 3 Zrotation Xrotation Yrotation
                                   End Site
                                   {
                                        OFFSET 16.74430 -0.60000 1.50291
                                   }
                              }
                         }
                    }
               }
               JOINT RightShoulder
               {
                    OFFSET -8.99000 -0.36225 -0.22000
                    CHANNELS 3 Zrotation Xrotation Yrotation
                    JOINT RightArm
                    {
                         OFFSET -10.28270 -0.00338 0.32212
                         CHANNELS 3 Zrotation Xrotation Yrotation
                         JOINT RightForeArm
                         {
                              OFFSET -32.89710 0.09914 -1.42434
                              CHANNELS 3 Zrotation Xrotation Yrotation
                              JOINT RightHand
                              {
                                   OFFSET -27.49210 0.08536 1.02216
                                   CHANNELS 3 Zrotation Xrotation Yrotation
                                   End Site
                                   {
                                        OFFSET -16.63120 -0.60000 1.50291
                                   }
                              }
                         }
                    }
               }
          }
     }
     JOINT LeftUpLeg
     {
          OFFSET 8.94580 -8.66707 0.10165
          CHANNELS 3 Zrotation Xrotation Yrotation
          JOINT LeftLeg
          {
               OFFSET 0.00000 -44.42270 1.37270
               CHANNELS 3 Zrotation Xrotation Yrotation
               JOINT LeftFoot
               {
                    OFFSET -0.25355 -42.09240 -1.46059
                    CHANNELS 3 Zrotation Xrotation Yrotation
                    JOINT LeftToes
                    {
                         OFFSET -0.04000 -4.41509 8.49910
                         CHANNELS 3 Zrotation Xrotation Yrotation
                         End Site
                         {
                              OFFSET 0.08000 -0.04745 9.77979
                         }
                    }
               }
          }
     }
     JOINT RightUpLeg
     {
          OFFSET -8.94580 -8.66707 0.10165
          CHANNELS 3 Zrotation Xrotation Yrotation
          JOINT RightLeg
          {
               OFFSET 0.00000 -44.42270 1.37270
               CHANNELS 3 Zrotation Xrotation Yrotation
               JOINT RightFoot
               {
                    OFFSET 0.25355 -42.09240 -1.46059
                    CHANNELS 3 Zrotation Xrotation Yrotation
                    JOINT RightToes
                    {
                         OFFSET 0.04000 -4.41509 8.49910
                         CHANNELS 3 Zrotation Xrotation Yrotation
                         End Site
                         {
                              OFFSET -0.08000 -0.13745 9.77979
                         }
                    }
               }
          }
     }
}
MOTION
Frames: 12
Frame Time: 0.01667
43.05799 82.51966 -122.80681 0.67379 -6.58124 -30.54858 -8.37275 27.05882 4.08882 -0.04145 0.09625 0.02365 -16.72317 7.22381 19.18050 -21.28151 35.58275 11.28642 -111.44621 -61.66805 -88.27258 -49.72578 53.62603 -87.77765 1.79456 3.06243 8.73368 -17.44993 39.36056 17.03786 85.30901 -26.88727 86.94167 35.74734 49.00314 90.55351 -6.78161 12.98388 7.24779 8.47667 -21.17889 8.29837 32.20312 28.03132 -10.59788 11.95314 -0.13935 0.17146 -40.08002 -18.12213 7.75425 -14.38340 -29.91449 -24.41799 -38.27086 43.56236 57.75823 5.75388 -0.00965 0.04892 -2.47349 -28.23754 -3.60403 
43.48226 79.22598 -123.15182 0.60303 -5.40781 -27.18497 -9.39788 31.23140 2.52908 -0.03808 0.08620 0.01578 -17.06742 5.49356 19.50886 -19.68463 32.16489 9.25669 -107.80516 -60.93783 -83.01592 -45.65895 54.33292 -90.69437 8.00760 4.45649 4.20158 -13.76849 35.83543 15.78195 75.45287 -24.39173 76.05985 25.29589 44.69273 101.85184 -0.03975 -4.78612 -3.81632 9.03526 -27.42723 5.38017 33.77399 35.68863 -10.55432 18.22665 -0.14486 0.25908 -50.27760 -13.17484 -1.17329 -16.53090 -34.47910 -27.68807 -48.94869 48.71165 65.37462 7.64764 -0.00060 0.08704 -3.89235 -34.30529 -2.75156 
44.02124 75.08102 -123.63124 1.06271 -4.21539 -22.18536 -10.28475 35.91364 0.15319 -0.03536 0.07347 0.01474 -17.77194 3.43042 19.83006 -17.70633 28.51609 7.10741 -105.00087 -59.89815 -79.89342 -41.96620 54.88322 -93.13186 2.77663 6.66721 3.16542 -8.98330 32.12885 14.06485 69.26733 -21.88866 69.77345 19.66381 41.15474 107.49226 -3.60290 4.94603 -0.38741 7.83963 -36.01778 1.02886 37.88112 43.55739 -14.14182 23.23911 -0.06935 0.18116 -57.72516 -17.76973 -3.86351 -21.08828 -39.41505 -32.24965 -60.85146 54.22109 74.43582 9.27015 0.01098 0.06332 -5.83395 -39.47200 -2.53134 
44.56895 70.74425 -124.26152 1.48325 -3.35869 -17.72699 -11.93961 41.17781 -0.51808 -0.03452 0.06331 0.00949 -18.91816 1.01010 20.05228 -15.01803 24.65323 4.70987 -102.81730 -58.90239 -77.95919 -38.92446 55.10074 -95.20586 6.81796 6.85071 0.09200 -3.84151 28.06104 12.21692 65.59789 -19.89513 66.30917 16.59938 38.82859 110.43743 -0.54404 0.37940 0.70271 5.69162 -45.55473 -2.87975 45.19925 51.54661 -22.23601 27.64667 -0.03008 0.14200 -64.52337 -17.17391 -8.40152 -26.61523 -44.40484 -35.80579 -76.48927 59.38849 87.42634 11.06667 0.01136 0.06517 -7.80027 -44.22210 -2.37340 
45.08161 65.97458 -124.99565 1.91913 -2.77423 -13.69899 -14.54172 46.76153 0.62057 -0.03645 0.05193 0.01142 -20.55096 -1.92660 19.91967 -22.85884 23.48935 11.58180 -95.83289 -51.92628 -82.70651 -36.66923 54.87113 -96.60669 4.25449 8.06595 -0.26887 1.12555 23.70576 10.66083 63.69383 -18.63977 64.60125 17.62237 41.71689 112.68666 -5.88265 8.74948 0.93025 2.36717 -55.54361 -6.74174 57.12027 58.64793 -36.11627 31.82638 -0.00114 0.12375 -70.95368 -19.20252 -11.33365 -32.78445 -49.18993 -38.39759 -97.41825 61.15873 105.56114 14.81774 0.04118 0.15091 -10.37552 -49.30542 -3.35515 
45.47353 61.12622 -125.79208 2.37683 -2.40592 -10.07415 -18.52014 52.32146 3.88143 -0.03892 0.04211 0.00705 -21.37406 -4.65250 18.66734 -17.33398 19.40665 7.53139 -94.78477 -51.26098 -81.14481 -35.01860 54.45683 -98.11266 6.58821 8.20788 -1.89361 6.03581 19.14136 9.00103 62.76575 -17.77055 63.96937 18.23285 43.45800 114.31879 -5.48441 8.45759 -0.17378 -2.24189 -65.37695 -10.89410 73.99516 63.35463 -56.00723 36.07405 0.02055 0.10723 -76.22809 -20.10983 -14.20891 -39.32679 -53.42255 -40.01562 -117.59735 61.02120 123.81985 18.41508 0.05497 0.11446 -13.38371 -53.60694 -4.21109 
45.77381 56.11766 -126.45626 2.83880 -2.22363 -6.81268 -24.55345 57.33073 9.90199 -0.04604 0.01900 0.00537 -21.38833 -6.93509 16.57395 -12.09739 15.12437 4.31296 -93.31253 -50.41601 -79.47505 -33.80159 54.06300 -100.06805 5.17167 9.07862 -1.80059 1.19431 16.59154 17.19330 71.48998 -25.42840 64.52283 19.34716 48.97008 118.22963 1.48827 5.92908 9.35416 -7.83110 -74.68655 -15.34156 93.07917 66.53699 -79.12601 42.19701 0.05752 0.14267 -81.32968 -21.70370 -16.43625 -45.94641 -56.89019 -40.59143 -134.78757 58.84275 140.04173 22.43224 0.06171 0.10431 -49.15257 -58.98948 -37.73202 
45.92233 51.37038 -126.95201 3.32107 -2.21321 -3.93215 -33.30531 61.23343 19.26034 -0.04846 0.00596 0.00586 -20.66606 -10.19490 13.55940 -6.70893 10.98628 1.56827 -92.14613 -49.49582 -78.07235 -33.10634 53.61126 -102.15369 6.44254 9.20979 -2.07356 7.68001 12.29043 13.47345 68.62274 -22.70698 67.39915 22.37061 49.06276 116.80944 -9.66360 14.47445 -3.06036 -13.04487 -83.08340 -18.95369 111.96139 67.77553 -102.79324 49.46996 0.08880 0.11709 -85.42582 -23.02553 -18.00956 -51.89185 -59.42813 -39.58275 -147.58820 55.69216 152.92784 26.90376 0.07274 0.09303 -38.74537 -61.35850 -25.23949 
46.04642 47.12485 -127.12860 3.85015 -2.38449 -1.40088 -44.40480 63.13557 31.57335 -0.05399 -0.03363 0.00638 -19.01225 -13.68557 9.76528 -1.29108 7.23009 -0.89801 -90.93967 -48.42237 -76.79746 -32.76767 53.05954 -104.07335 5.46352 9.93415 -1.46312 13.92108 8.30812 9.76933 65.65002 -19.83185 72.12680 25.94125 46.68677 113.53936 9.45116 6.66175 13.44739 4.00659 -90.00000 0.00000 125.03178 66.91734 -120.95126 55.91553 0.05035 0.04012 -88.97523 -23.53716 -18.36329 -55.67733 -60.95348 -35.76348 -154.71332 52.47774 159.88441 33.22370 0.17678 0.06401 -47.78004 -63.33072 -32.30410 
46.07928 43.56552 -127.04585 4.41562 -2.70671 0.78491 -53.60215 63.49578 42.13788 0.04689 -0.05008 -0.04276 -17.77756 -17.41694 5.91622 2.76252 4.25452 -2.68207 -90.01021 -47.31406 -76.04810 -32.75998 52.40315 -105.62331 5.86283 10.04005 -1.12778 18.36230 5.11918 6.90308 63.93919 -18.47970 74.60461 27.62985 45.28875 113.11988 5.15216 9.64123 -1.53424 143.16400 -84.70220 141.10880 132.82387 66.38665 -133.64900 61.92096 0.01016 0.00213 -91.60398 -23.71869 -18.25629 -56.73106 -61.33532 -28.89028 -160.98802 50.67340 166.53604 39.01765 0.15098 0.01980 -45.42349 -64.92508 -27.33373 
46.28455 40.90819 -126.65375 4.99488 -3.15591 2.65223 -59.90378 62.88173 49.86017 0.05032 -0.05549 -0.05136 -16.63142 -21.21233 2.09928 5.61171 1.86481 -3.99229 -93.47192 -45.25308 -81.31350 -31.44448 49.77048 -107.32506 14.05781 19.68484 -10.99240 16.04259 -3.60931 12.00611 67.87045 -22.61840 70.66449 30.83141 44.77732 110.45383 5.09628 9.02297 7.04603 136.93825 -81.27136 136.74710 138.41704 66.86604 -143.36621 67.56932 -0.01128 -0.01232 -93.51343 -23.33859 -17.63731 -55.56979 -60.26141 -19.86316 -166.50787 50.22889 172.76686 44.44188 0.12945 0.00512 -49.34694 -66.22980 -28.54912 
46.58030 39.10612 -126.13850 5.57156 -3.70372 4.24106 -63.46711 61.78667 54.81594 0.04121 -0.04278 -0.04335 -15.51869 -25.09138 -1.66670 7.36970 0.34773 -5.05064 -98.64532 -41.93770 -89.42645 -33.24502 49.48917 -102.87369 2.42246 7.75889 2.13287 19.19172 -4.42379 8.96018 67.77208 -21.99775 73.94492 26.68082 46.57167 117.40614 -1.13465 7.55631 -5.46866 129.33444 -79.31572 130.78839 143.73093 68.05611 -151.85231 72.69263 -0.01553 -0.01508 -94.78069 -23.07096 -17.00066 -53.45711 -57.74411 -10.30116 -171.67366 50.85964 178.68050 49.45196 0.11273 -0.00181 -50.13904 -67.54520 -26.43423 
